<svg height="800" width="800" xmlns="http://www.w3.org/2000/svg" viewBox="0 0 502.4 502.4"><path d="M177.6 268L92.8 96 8 268c-5.6 12-8 24.8-8 38.4 0 51.2 41.6 92.8 92.8 92.8s92.8-41.6 92.8-92.8c.8-13.6-2.4-26.4-8-38.4z" fill="#00a1ad"/><path d="M92.8 399.2c51.2 0 92.8-41.6 92.8-92.8 0-13.6-3.2-26.4-8-38.4L92.8 96" fill="#027f89"/><path d="M37.6 353.6c11.2 15.2 26.4 24 32.8 19.2 6.4-4.8 2.4-21.6-8.8-36.8-11.2-15.2-26.4-24-32.8-19.2-6.4 5.6-2.4 21.6 8.8 36.8z" fill="#63d6d3"/><path d="M235.2 131.2c-24 70.4-103.2 86.4-97.6 170.4 3.2 48.8 49.6 76.8 97.6 104.8v-3.2 3.2c48-28 95.2-56 97.6-104.8 5.6-84-73.6-100-97.6-170.4z" fill="#82c60a"/><path d="M235.2 403.2v3.2c48-28 95.2-56 97.6-104.8 5.6-84-73.6-100-97.6-170.4" fill="#5ea304"/><g fill="#74b208"><path d="M235.2 253.6l-44-28 44 44 44-44zm0 91.2l-44-27.2 44 44 44-44z"/><path d="M235.2 298.4l-49.6-31.2 49.6 49.6 49.6-49.6z"/></g><circle cx="393.6" cy="294.4" r="108.8" fill="#657776"/><ellipse cx="393.6" cy="294.4" rx="68.8" ry="108.8" fill="#879998"/><ellipse cx="393.6" cy="294.4" rx="24" ry="108.8" fill="#a1b7b6"/></svg>