<svg xmlns="http://www.w3.org/2000/svg" viewBox="0 0 497.6 497.6"><path d="M80.8 288.8l12-6.4 12 6.4V356l-12 6.4-12-6.4zm-48 0l12-6.4 12 6.4V356l-12 6.4-12-6.4z" fill="#207700"/><path fill="#239b02" d="M40.8 305.6h56v16h-56z"/><path d="M440.8 288.8l12-6.4 12 6.4V356l-12 6.4-12-6.4zm-48 0l12-6.4 12 6.4V356l-12 6.4-12-6.4z" fill="#207700"/><path d="M400.8 305.6h56v16h-56zm-375.2 40c34.4 88 120.8 152 222.4 152s188-64 222.4-152H25.6z" fill="#239b02"/><path fill="#dddac3" d="M120.8 177.6h256v168h-256z"/><path fill="#c9c5ad" d="M120.8 177.6h256v168"/><path d="M232.8 337.6V220c0-5.6-2.4-10.4-8-10.4h-59.2c-5.6 0-12.8 4.8-12.8 10.4v117.6h80z" fill="#fca12a"/><path d="M232.8 281.6V220c0-5.6-2.4-10.4-8-10.4h-59.2c-5.6 0-12.8 4.8-12.8 10.4" fill="#e58613"/><circle cx="214.4" cy="274.4" r="10.4" fill="#db5435"/><path d="M221.6 267.2c4 4 4 10.4 0 14.4s-10.4 4-14.4 0" fill="#c43d27"/><path d="M304.8 241.6h32V220c0-5.6-5.6-10.4-10.4-10.4h-21.6v32z" fill="#008aaa"/><path d="M288.8 241.6v-32h-22.4c-5.6 0-9.6 4.8-9.6 10.4v21.6h32z" fill="#00a1ad"/><path d="M288.8 257.6h-32V280c0 5.6 4 9.6 9.6 9.6h22.4v-32z" fill="#008aaa"/><path d="M304.8 257.6v32h21.6c5.6 0 10.4-4 10.4-9.6v-22.4h-32z" fill="#00a1ad"/><path fill="#c43d27" d="M418.4 177.6L248 44 77.6 177.6z"/><path fill="#aa1e0f" d="M418.4 177.6L248 44l-87.2 133.6z"/><path d="M435.2 406.4l-60-60.8H120.8l150.4 151.2c66.4-7.2 124.8-40.8 164-90.4z" fill="#207700"/><path d="M128.8 137.6h238.4l-10.4-8H139.2zm51.2-40h136l-10.4-8H190.4z" fill="#c43d27"/><path d="M472 96.8c-20.8 8.8-40-4-56 15.2-9.6 10.4-6.4 25.6-1.6 42.4 16.8 4.8 31.2 8 42.4-1.6 18.4-16 6.4-35.2 15.2-56z" fill="#82c60a"/><path d="M414.4 154.4c16.8 4.8 32 8 42.4-1.6 18.4-16.8 6.4-35.2 15.2-56" fill="#5ea304"/><g fill="#74b208"><path d="M444.8 124l-4-16.8v22.4h20zM428 141.6l-3.2-15.2v19.2h16.8z"/><path d="M436.8 132.8l-4-17.6v22.4h20.8z"/></g><path d="M376.8 0v1.6V0c-16 33.6-49.6 40.8-47.2 80.8 1.6 23.2 22.4 36.8 46.4 50.4l.8-1.6-.8.8c24-13.6 45.6-27.2 47.2-50.4 2.4-39.2-30.4-46.4-46.4-80z" fill="#82c60a"/><path d="M376 130.4l-.8-.8h1.6l-.8.8c24-13.6 45.6-27.2 47.2-50.4 2.4-39.2-30.4-46.4-46.4-80v1.6" fill="#5ea304"/><g fill="#74b208"><path d="M375.2 57.6l-20.8-12.8 20.8 20.8 21.6-20.8zm0 43.2L354.4 88l20.8 20.8L396.8 88z"/><path d="M375.2 79.2L352 64l23.2 24 24-24z"/></g></svg>