<svg xmlns="http://www.w3.org/2000/svg" viewBox="0 0 512 512"><ellipse transform="rotate(-62.206 244.269 142.39)" cx="244.269" cy="142.383" rx="106.902" ry="76.063" fill="#ff8d36"/><path d="M294.124 47.823a55.213 55.213 0 00-13.914-5.078c19.246 26.765 19.502 71.613-2.188 112.758-24.24 45.985-67.79 71.984-103.22 64.175 5.184 7.21 11.733 13.121 19.619 17.278 37.16 19.589 89.602-6.87 117.134-59.097s19.728-110.447-17.431-130.036z" opacity=".2"/><ellipse transform="rotate(-62.206 372.33 151.094)" cx="372.329" cy="151.085" rx="106.902" ry="76.063" fill="#69b551"/><path d="M423.01 57.012c15.611 27.141 14.502 68.784-5.751 107.204-27.532 52.227-79.975 78.686-117.135 59.097-.283-.149-.548-.321-.827-.474 5.61 9.754 13.36 17.652 23.183 22.83 37.16 19.589 89.603-6.87 117.135-59.097 27.322-51.829 19.828-109.54-16.605-129.56z" opacity=".2"/><path d="M96.657 145.148c15.719-40.166-17.451-94.65-45.977-77.789s3.209 72.191 45.977 77.789z" fill="#8fe673"/><g fill="#76cc5b"><path d="M96.657 145.148C79.37 105.631 17.389 90.561 9.141 122.654s53.316 48.778 87.516 22.494z"/><path d="M96.657 145.148c-26.284-34.2-9.598-95.765 22.494-87.516s17.023 70.229-22.494 87.516z"/></g><path d="M103.684 149.706c.22-.34.419-.692.586-1.059.026-.056.047-.114.072-.171.174-.404.325-.817.435-1.243l13.873-53.972a8.383 8.383 0 00-6.033-10.206 8.38 8.38 0 00-10.206 6.032l-8.835 34.372-18.057-30.55a8.383 8.383 0 00-14.434 8.53l18.058 30.552-34.372-8.835a8.38 8.38 0 00-10.206 6.032 8.383 8.383 0 006.033 10.206l53.949 13.867h.002l.022.006c.218.056.437.087.655.125.126.022.249.056.377.072a8.347 8.347 0 001.062.069c.018 0 .035-.004.053-.004.4-.002.8-.04 1.201-.101.134-.02.265-.053.397-.079a8.228 8.228 0 001.263-.358c.257-.096.51-.209.76-.332.137-.067.275-.131.408-.206.058-.032.118-.055.177-.089.278-.164.54-.345.791-.535.013-.01.028-.017.041-.027.03-.023.055-.053.084-.076.302-.237.582-.491.844-.761.038-.039.078-.075.115-.116a8.295 8.295 0 00.885-1.143z" fill="#599944"/><circle cx="123.079" cy="189.051" r="68.889" fill="#ff704d"/><path d="M123.082 120.165a68.95 68.95 0 00-16.767 2.066c29.94 7.489 52.119 34.56 52.119 66.82s-22.179 59.331-52.119 66.82a69.049 69.049 0 0016.767 2.066c38.045 0 68.886-30.841 68.886-68.886 0-38.044-30.841-68.886-68.886-68.886z" opacity=".2"/><ellipse cx="181.841" cy="231.225" rx="79.977" ry="78.77" fill="#ffc552"/><path d="M190.075 152.863c22.919 13.853 38.211 38.757 38.211 67.184 0 43.508-35.808 78.777-79.98 78.777-2.781 0-5.527-.141-8.236-.414 12.158 7.348 26.459 11.591 41.769 11.591 44.171 0 79.98-35.269 79.98-78.777.001-40.767-31.443-74.3-71.744-78.361z" opacity=".2"/><ellipse cx="276.014" cy="215.912" rx="82.593" ry="81.352" fill="#9773bf"/><path d="M304.083 139.391c13.048 14.386 20.99 33.36 20.99 54.168 0 44.929-36.979 81.351-82.594 81.351a83.564 83.564 0 01-28.07-4.827c15.125 16.675 37.115 27.182 61.603 27.182 45.616 0 82.594-36.422 82.594-81.351 0-35.219-22.728-65.205-54.523-76.523z" opacity=".2"/><path d="M487.724 225.556c0-16.748-13.577-30.324-30.324-30.324a30.173 30.173 0 00-15.233 4.108c-4.031-12.016-15.374-20.678-28.748-20.678a30.17 30.17 0 00-15.234 4.108c-4.031-12.016-15.374-20.678-28.748-20.678s-24.718 8.662-28.748 20.678a30.17 30.17 0 00-15.234-4.108c-13.373 0-24.718 8.662-28.748 20.678a30.169 30.169 0 00-15.233-4.108c-16.748 0-30.324 13.577-30.324 30.324v45.571h236.575v-45.571h-.001z" fill="#8fe673"/><path d="M457.399 195.233c-3.946 0-7.706.769-11.162 2.143 11.206 4.454 19.131 15.39 19.131 28.182v45.571h22.356v-45.571c0-16.75-13.577-30.325-30.325-30.325z" opacity=".2"/><path fill="#f2ae5d" d="M261.82 259.949L45.205 290.754v179.884h433.806V290.754z"/><path opacity=".2" d="M45.205 290.754v33.339h433.806v-33.339L261.82 259.949z"/><path fill="#f2ae5d" d="M20.027 229.336h483.587v61.221H20.027z"/><path d="M356.234 51.785c-10.21 5.151-19.883 12.058-28.723 20.387-6.612-14.057-16.625-24.877-29.475-31.651-23.366-12.318-52.508-9.283-79.953 8.329a8.382 8.382 0 00-2.527 11.584 8.383 8.383 0 0011.584 2.527c22.215-14.255 45.204-17.029 63.079-7.607 11.338 5.977 19.829 16.406 24.739 30.311.24.68-4.291 5.51-4.812 6.216-5.35 7.261-10.193 15.162-14.224 23.327-.459.931-5.21 12.246-5.448 12.21-27.418-4.231-55.781 3.999-76.27 22.795-.129-.05-.259-.093-.389-.142a88.39 88.39 0 00-27.558-5.779c-.098-.004-.196-.015-.295-.019l-.041-.056a78.37 78.37 0 00-2.333-3.092l-.097-.123a77.568 77.568 0 00-8.158-8.78 140.322 140.322 0 019.078-21.278c5.653-10.723 12.517-20.499 20.405-29.057a8.383 8.383 0 00-.483-11.846 8.382 8.382 0 00-11.846.483c-8.872 9.625-16.58 20.594-22.909 32.601a157.945 157.945 0 00-8.386 18.777 76.619 76.619 0 00-22.921-8.514c7.124-15.87 8.73-32.627 3.866-45.08-3.726-9.54-11.147-16.174-20.895-18.679a31.537 31.537 0 00-7.847-1.016c-11.11 0-21.032 6.25-28.003 17.216-7.269-6.443-15.39-9.885-23.641-9.885-5.332 0-10.492 1.451-15.334 4.314C33.97 67.615 29.075 81.35 32.56 97.084c-16.274 1.004-27.952 9.664-31.533 23.598-2.43 9.454-.529 18.56 5.498 26.332 8.418 10.856 24.431 18.004 42.725 19.368a77.02 77.02 0 00-3.433 22.786c0 11.143 2.355 21.954 6.884 31.904H20.033a8.383 8.383 0 00-8.383 8.383v61.221a8.383 8.383 0 008.383 8.383h16.505v171.499a8.383 8.383 0 008.383 8.383h433.805a8.383 8.383 0 008.383-8.383v-171.5h16.506a8.383 8.383 0 008.383-8.383v-61.221a8.382 8.382 0 00-8.383-8.383h-7.786c-2.284-19.181-18.639-34.106-38.425-34.106-3.075 0-6.122.386-9.088 1.102 5.826-11.541 10.171-23.575 12.887-35.826a8.385 8.385 0 00-6.369-10c-4.518-.999-8.998 1.85-10 6.37-2.142 9.659-5.416 19.186-9.756 28.401-.093-.063-.191-.116-.284-.178-6.243-4.174-13.873-6.434-21.373-6.438-3.788 0-7.542.558-11.141 1.64a38.67 38.67 0 00-32.841-18.21c-7.744 0-15.489 2.427-21.882 6.789a90.318 90.318 0 00-40.654-29.04c-.162-.057 5.44-11.693 5.984-12.71 18.018-33.72 63.509-76.869 105.388-54.795 17.616 9.287 28.305 29.476 29.327 55.391a8.38 8.38 0 008.708 8.046 8.384 8.384 0 008.046-8.708c-1.265-32.055-15.211-57.408-38.262-69.561-20.435-10.776-45.245-9.87-69.86 2.547zM181.507 160.956c.113 0 .225-.008.336-.008 6.484 0 12.88.839 19.136 2.545.219.059.439.116.658.178.14.039.276.088.416.129a88.669 88.669 0 00-12.881 25.477c-.036.112-.068.225-.103.338a88.562 88.562 0 00-3.921 30.545c.015.304.022.608.04.913h-74.139c.047-.32.089-.642.141-.96 2.395-14.751 9.722-28.546 20.445-38.931 13.375-12.952 31.077-20.134 49.872-20.226zm-21.212-19.51c.069.058.129.127.2.183a61.207 61.207 0 014.676 4.106c-25.603 4.814-48.292 21.134-60.94 43.928-5.106 9.2-8.524 19.585-9.936 30.118-.05.377-.113.75-.159 1.128-.007.055-.017.108-.022.163H71.689c-5.968-9.573-9.103-20.519-9.103-31.904 0-20.842 11.171-40.663 28.899-51.568.091-.056.178-.116.268-.171 20.632-12.464 49.667-11.882 68.542 4.017zm-140.519-4.707c-2.812-3.626-3.633-7.514-2.511-11.883 2.359-9.176 11.371-11.103 18.517-11.103 2.355 0 4.851.219 7.418.651a8.385 8.385 0 008.944-11.903c-2.298-4.776-8.889-20.897 2.807-27.809 2.256-1.332 4.48-1.981 6.803-1.981 6.175 0 13.071 4.706 18.92 12.91a8.381 8.381 0 0014.738-2.093c3.982-11.363 10.705-18.147 17.985-18.147 1.176 0 2.412.164 3.673.488 4.575 1.176 7.666 3.969 9.452 8.541 3.675 9.41 1.081 24.359-6.27 37.541-.236.009-.469.028-.705.039-1.938.087-3.874.25-5.799.483l4.907-19.094a8.383 8.383 0 00-6.032-10.206 8.38 8.38 0 00-10.206 6.032l-7.173 27.907-.173.068a75.657 75.657 0 00-4.216 1.781L75.524 93.023a8.384 8.384 0 00-14.434 8.532l15.377 26.016a76.172 76.172 0 00-3.618 2.915l-28.072-7.215a8.38 8.38 0 00-10.206 6.032 8.383 8.383 0 006.032 10.206l19.454 5a76.791 76.791 0 00-2.996 4.559l-.06.097c-.141.234-.291.462-.429.696-15.729.239-30.583-5.11-36.796-13.122zm475.457 101.098v44.454H114.824a8.383 8.383 0 000 16.766h355.519v73.09c-13.459-.11-27.11-.082-39.937.085a8.382 8.382 0 00-8.272 8.493 8.383 8.383 0 008.38 8.274h.113c12.754-.168 26.332-.193 39.717-.084v73.26H53.305v-73.189c114.903-.189 227.005-.184 342.397.013h.015a8.384 8.384 0 00.014-16.767c-115.4-.198-227.514-.202-342.425-.013v-73.161h30.223a8.383 8.383 0 000-16.766H28.416v-44.454l466.817-.001zm-151.587-47.105c5.259-1.98 5.677-8.307 8.967-12.248 10.821-12.961 32.275-8.89 37.628 7.068a8.383 8.383 0 004.996 5.181c4.755 1.791 9.345-2.236 13.88-3.144 8.114-1.625 16.658 1.621 21.688 8.164.08.104.172.196.256.296 3.145 3.712 3.039 9.328 8.156 11.253a8.392 8.392 0 007.171-.601 21.908 21.908 0 0111.016-2.969c10.521 0 19.335 7.443 21.455 17.339h-218.83a21.556 21.556 0 011.47-4.422c5.269-11.609 19.964-16.37 30.992-9.949a8.492 8.492 0 007.171.602 8.38 8.38 0 004.996-5.18 21.917 21.917 0 0120.8-14.96c6.1-.001 12.235 5.812 18.188 3.57zm-8.845-19.191c-.169-.042-.342-.072-.512-.112a38.791 38.791 0 00-8.831-1.035 38.666 38.666 0 00-32.84 18.209 38.73 38.73 0 00-11.14-1.639c-18.568 0-35.294 14.265-38.219 32.583-.08.505-.156 1.015-.218 1.522h-41.039c-1.639-.006 1.272-16.976 1.519-18.401 7.117-41.191 50.341-67.201 90.359-57.469 16.024 3.899 30.75 13.418 40.921 26.342z"/></svg>