<?xml version="1.0" encoding="iso-8859-1"?>
<!-- Uploaded to: SVG Repo, www.svgrepo.com, Generator: SVG Repo Mixer Tools -->
<svg height="800px" width="800px" version="1.1" id="Layer_1" xmlns="http://www.w3.org/2000/svg" xmlns:xlink="http://www.w3.org/1999/xlink" 
	 viewBox="0 0 502.4 502.4" xml:space="preserve">
<path style="fill:#00A1AD;" d="M177.6,268L177.6,268L92.8,96L8,268l0,0c-5.6,12-8,24.8-8,38.4c0,51.2,41.6,92.8,92.8,92.8
	s92.8-41.6,92.8-92.8C186.4,292.8,183.2,280,177.6,268z"/>
<path style="fill:#027F89;" d="M92.8,399.2c51.2,0,92.8-41.6,92.8-92.8c0-13.6-3.2-26.4-8-38.4l0,0L92.8,96"/>
<path style="fill:#63D6D3;" d="M37.6,353.6c11.2,15.2,26.4,24,32.8,19.2c6.4-4.8,2.4-21.6-8.8-36.8c-11.2-15.2-26.4-24-32.8-19.2
	C22.4,322.4,26.4,338.4,37.6,353.6z"/>
<path style="fill:#82C60A;" d="M235.2,131.2L235.2,131.2L235.2,131.2L235.2,131.2c-24,70.4-103.2,86.4-97.6,170.4
	c3.2,48.8,49.6,76.8,97.6,104.8v-3.2l0,0v3.2c48-28,95.2-56,97.6-104.8C338.4,217.6,259.2,201.6,235.2,131.2z"/>
<path style="fill:#5EA304;" d="M235.2,403.2L235.2,403.2L235.2,403.2v3.2c48-28,95.2-56,97.6-104.8c5.6-84-73.6-100-97.6-170.4l0,0
	l0,0l0,0"/>
<g>
	<polygon style="fill:#74B208;" points="235.2,253.6 191.2,225.6 235.2,269.6 279.2,225.6 	"/>
	<polygon style="fill:#74B208;" points="235.2,344.8 191.2,317.6 235.2,361.6 279.2,317.6 	"/>
	<polygon style="fill:#74B208;" points="235.2,298.4 185.6,267.2 235.2,316.8 284.8,267.2 	"/>
</g>
<circle style="fill:#657776;" cx="393.6" cy="294.4" r="108.8"/>
<ellipse style="fill:#879998;" cx="393.6" cy="294.4" rx="68.8" ry="108.8"/>
<ellipse style="fill:#A1B7B6;" cx="393.6" cy="294.4" rx="24" ry="108.8"/>
</svg>