<?xml version="1.0" encoding="iso-8859-1"?>
<!-- Uploaded to: SVG Repo, www.svgrepo.com, Generator: SVG Repo Mixer Tools -->
<svg version="1.1" id="Layer_1" xmlns="http://www.w3.org/2000/svg" xmlns:xlink="http://www.w3.org/1999/xlink" 
	 viewBox="0 0 497.6 497.6" xml:space="preserve">
<g>
	<polygon style="fill:#207700;" points="80.8,288.8 92.8,282.4 104.8,288.8 104.8,356 92.8,362.4 80.8,356 	"/>
	<polygon style="fill:#207700;" points="32.8,288.8 44.8,282.4 56.8,288.8 56.8,356 44.8,362.4 32.8,356 	"/>
</g>
<rect x="40.8" y="305.6" style="fill:#239B02;" width="56" height="16"/>
<g>
	<polygon style="fill:#207700;" points="440.8,288.8 452.8,282.4 464.8,288.8 464.8,356 452.8,362.4 440.8,356 	"/>
	<polygon style="fill:#207700;" points="392.8,288.8 404.8,282.4 416.8,288.8 416.8,356 404.8,362.4 392.8,356 	"/>
</g>
<g>
	<rect x="400.8" y="305.6" style="fill:#239B02;" width="56" height="16"/>
	<path style="fill:#239B02;" d="M25.6,345.6c34.4,88,120.8,152,222.4,152s188-64,222.4-152H25.6z"/>
</g>
<rect x="120.8" y="177.6" style="fill:#DDDAC3;" width="256" height="168"/>
<polyline style="fill:#C9C5AD;" points="120.8,177.6 376.8,177.6 376.8,345.6 "/>
<path style="fill:#FCA12A;" d="M232.8,337.6V220c0-5.6-2.4-10.4-8-10.4h-59.2c-5.6,0-12.8,4.8-12.8,10.4v117.6H232.8z"/>
<path style="fill:#E58613;" d="M232.8,281.6V220c0-5.6-2.4-10.4-8-10.4h-59.2c-5.6,0-12.8,4.8-12.8,10.4"/>
<circle style="fill:#DB5435;" cx="214.4" cy="274.4" r="10.4"/>
<path style="fill:#C43D27;" d="M221.6,267.2c4,4,4,10.4,0,14.4s-10.4,4-14.4,0"/>
<path style="fill:#008AAA;" d="M304.8,241.6h32V220c0-5.6-5.6-10.4-10.4-10.4h-21.6V241.6z"/>
<path style="fill:#00A1AD;" d="M288.8,241.6v-32h-22.4c-5.6,0-9.6,4.8-9.6,10.4v21.6H288.8z"/>
<path style="fill:#008AAA;" d="M288.8,257.6h-32V280c0,5.6,4,9.6,9.6,9.6h22.4V257.6z"/>
<path style="fill:#00A1AD;" d="M304.8,257.6v32h21.6c5.6,0,10.4-4,10.4-9.6v-22.4H304.8z"/>
<polygon style="fill:#C43D27;" points="418.4,177.6 248,44 77.6,177.6 "/>
<polygon style="fill:#AA1E0F;" points="418.4,177.6 248,44 160.8,177.6 "/>
<path style="fill:#207700;" d="M435.2,406.4l-60-60.8H122.4h-1.6l150.4,151.2C337.6,489.6,396,456,435.2,406.4z"/>
<g>
	<polygon style="fill:#C43D27;" points="128.8,137.6 367.2,137.6 356.8,129.6 139.2,129.6 	"/>
	<polygon style="fill:#C43D27;" points="180,97.6 316,97.6 305.6,89.6 190.4,89.6 	"/>
</g>
<path style="fill:#82C60A;" d="M472,96.8L472,96.8L472,96.8L472,96.8c-20.8,8.8-40-4-56,15.2c-9.6,10.4-6.4,25.6-1.6,42.4l0,0l0,0
	l0,0c16.8,4.8,31.2,8,42.4-1.6C475.2,136.8,463.2,117.6,472,96.8z"/>
<path style="fill:#5EA304;" d="M414.4,154.4L414.4,154.4L414.4,154.4L414.4,154.4c16.8,4.8,32,8,42.4-1.6
	c18.4-16.8,6.4-35.2,15.2-56l0,0l0,0l0,0"/>
<g>
	<polygon style="fill:#74B208;" points="444.8,124 440.8,107.2 440.8,129.6 460.8,129.6 	"/>
	<polygon style="fill:#74B208;" points="428,141.6 424.8,126.4 424.8,145.6 441.6,145.6 	"/>
	<polygon style="fill:#74B208;" points="436.8,132.8 432.8,115.2 432.8,137.6 453.6,137.6 	"/>
</g>
<path style="fill:#82C60A;" d="M376.8,0v1.6l0,0V0c-16,33.6-49.6,40.8-47.2,80.8c1.6,23.2,22.4,36.8,46.4,50.4l0,0l0.8-1.6l-0.8,0.8
	c24-13.6,45.6-27.2,47.2-50.4C425.6,40.8,392.8,33.6,376.8,0z"/>
<path style="fill:#5EA304;" d="M376,130.4l-0.8-0.8h1.6L376,130.4c24-13.6,45.6-27.2,47.2-50.4c2.4-39.2-30.4-46.4-46.4-80v1.6l0,0
	l0,0"/>
<g>
	<polygon style="fill:#74B208;" points="375.2,57.6 354.4,44.8 375.2,65.6 396.8,44.8 	"/>
	<polygon style="fill:#74B208;" points="375.2,100.8 354.4,88 375.2,108.8 396.8,88 	"/>
	<polygon style="fill:#74B208;" points="375.2,79.2 352,64 375.2,88 399.2,64 	"/>
</g>
</svg>